<?xml version='1.0' encoding='UTF-8'?>
<!DOCTYPE svg PUBLIC "-//W3C//DTD SVG 1.0//EN" "http://www.w3.org/TR/2001/REC-SVG-20010904/DTD/svg10.dtd">
<svg viewBox="0 0 664 973" xmlns="http://www.w3.org/2000/svg" xmlns:inkspace="http://www.inkscape.org/namespaces/inkscape" xmlns:xlink="http://www.w3.org/1999/xlink">
  <defs id="defs_block">
    <filter height="1.504" id="filter_blur" inkspace:collect="always" width="1.1575" x="-0.07875" y="-0.252">
      <feGaussianBlur id="feGaussianBlur3780" inkspace:collect="always" stdDeviation="4.2" />
    </filter>
  </defs>
  <title>blockdiag</title>
  <desc>seqdiag {
  User; App; Server;
  autonumber = True;
  default_note_color = lightblue;
  default_fontsize = 14;

  User  =&gt; App [
    label = "I want to connect\nmy bank to this app.",
    return = "Go see the\nSimpleFIN Server."
  ];
  User =&gt; Server [
    label = "I want to connect an app",
    return = "Here's a SimpleFIN Token"
  ];
  User =&gt; App [
    label = "Here's a\nSimpleFIN Token",
    return = "Alright, I'm connected."
  ] {
    App =&gt; Server [
      label = "Here's a\nSimpleFIN Token",
      return = "Here's a read-only\nAccess Key",
      rightnote = "That one-time\ntoken is now\nused up."
    ];
  }
  App =&gt; Server [
    label = "Here's my Access Key",
    return = "Here's the User's\ntransaction history."
  ]
}</desc>
  <rect fill="rgb(0,0,0)" height="790" style="filter:url(#filter_blur);opacity:0.7;fill-opacity:1" width="8" x="127" y="161" />
  <rect fill="rgb(0,0,0)" height="85" style="filter:url(#filter_blur);opacity:0.7;fill-opacity:1" width="8" x="319" y="161" />
  <rect fill="rgb(0,0,0)" height="263" style="filter:url(#filter_blur);opacity:0.7;fill-opacity:1" width="8" x="319" y="469" />
  <rect fill="rgb(0,0,0)" height="69" style="filter:url(#filter_blur);opacity:0.7;fill-opacity:1" width="8" x="511" y="316" />
  <rect fill="rgb(0,0,0)" height="103" style="filter:url(#filter_blur);opacity:0.7;fill-opacity:1" width="8" x="511" y="544" />
  <rect fill="rgb(0,0,0)" height="85" style="filter:url(#filter_blur);opacity:0.7;fill-opacity:1" width="8" x="511" y="820" />
  <polygon fill="rgb(0,0,0)" points="531,519 643,519 651,527 651,569 531,569 531,519" stroke="rgb(0,0,0)" style="filter:url(#filter_blur);opacity:0.7;fill-opacity:1" />
  <rect fill="rgb(0,0,0)" height="40" stroke="rgb(0,0,0)" style="filter:url(#filter_blur);opacity:0.7;fill-opacity:1" width="128" x="67" y="46" />
  <rect fill="rgb(0,0,0)" height="40" stroke="rgb(0,0,0)" style="filter:url(#filter_blur);opacity:0.7;fill-opacity:1" width="128" x="259" y="46" />
  <rect fill="rgb(0,0,0)" height="40" stroke="rgb(0,0,0)" style="filter:url(#filter_blur);opacity:0.7;fill-opacity:1" width="128" x="451" y="46" />
  <path d="M 128 80 L 128 961" fill="none" stroke="rgb(0,0,0)" stroke-dasharray="8 4" />
  <rect fill="moccasin" height="790" stroke="rgb(0,0,0)" width="8" x="124" y="155" />
  <path d="M 320 80 L 320 961" fill="none" stroke="rgb(0,0,0)" stroke-dasharray="8 4" />
  <rect fill="moccasin" height="85" stroke="rgb(0,0,0)" width="8" x="316" y="155" />
  <rect fill="moccasin" height="263" stroke="rgb(0,0,0)" width="8" x="316" y="463" />
  <path d="M 512 80 L 512 961" fill="none" stroke="rgb(0,0,0)" stroke-dasharray="8 4" />
  <rect fill="moccasin" height="69" stroke="rgb(0,0,0)" width="8" x="508" y="310" />
  <rect fill="moccasin" height="103" stroke="rgb(0,0,0)" width="8" x="508" y="538" />
  <rect fill="moccasin" height="85" stroke="rgb(0,0,0)" width="8" x="508" y="814" />
  <rect fill="rgb(255,255,255)" height="40" stroke="rgb(0,0,0)" width="128" x="64" y="40" />
  <text fill="rgb(0,0,0)" font-family="sans-serif" font-size="14" font-style="normal" font-weight="normal" text-anchor="middle" textLength="34" x="128" y="67">User</text>
  <rect fill="rgb(255,255,255)" height="40" stroke="rgb(0,0,0)" width="128" x="256" y="40" />
  <text fill="rgb(0,0,0)" font-family="sans-serif" font-size="14" font-style="normal" font-weight="normal" text-anchor="middle" textLength="29" x="320" y="68">App</text>
  <rect fill="rgb(255,255,255)" height="40" stroke="rgb(0,0,0)" width="128" x="448" y="40" />
  <text fill="rgb(0,0,0)" font-family="sans-serif" font-size="14" font-style="normal" font-weight="normal" text-anchor="middle" textLength="46" x="512" y="67">Server</text>
  <path d="M 136 155 L 312 155" fill="none" stroke="rgb(0,0,0)" />
  <polygon fill="rgb(0,0,0)" points="304,151 312,155 304,159" stroke="rgb(0,0,0)" />
  <path d="M 136 240 L 312 240" fill="none" stroke="rgb(0,0,0)" stroke-dasharray="4" />
  <polygon fill="rgb(0,0,0)" points="144,236 136,240 144,244" stroke="rgb(0,0,0)" />
  <path d="M 136 310 L 504 310" fill="none" stroke="rgb(0,0,0)" />
  <polygon fill="rgb(0,0,0)" points="496,306 504,310 496,314" stroke="rgb(0,0,0)" />
  <path d="M 136 379 L 504 379" fill="none" stroke="rgb(0,0,0)" stroke-dasharray="4" />
  <polygon fill="rgb(0,0,0)" points="144,375 136,379 144,383" stroke="rgb(0,0,0)" />
  <path d="M 136 463 L 312 463" fill="none" stroke="rgb(0,0,0)" />
  <polygon fill="rgb(0,0,0)" points="304,459 312,463 304,467" stroke="rgb(0,0,0)" />
  <path d="M 328 538 L 504 538" fill="none" stroke="rgb(0,0,0)" />
  <polygon fill="rgb(0,0,0)" points="496,534 504,538 496,542" stroke="rgb(0,0,0)" />
  <polygon fill="rgb(173,216,230)" points="528,513 640,513 648,521 648,563 528,563 528,513" stroke="rgb(0,0,0)" />
  <path d="M 640 513 L 640 521" fill="none" stroke="rgb(0,0,0)" />
  <path d="M 640 521 L 648 521" fill="none" stroke="rgb(0,0,0)" />
  <text fill="rgb(0,0,0)" font-family="sans-serif" font-size="14" font-style="normal" font-weight="normal" text-anchor="middle" textLength="96" x="584" y="528">That one-time</text>
  <text fill="rgb(0,0,0)" font-family="sans-serif" font-size="14" font-style="normal" font-weight="normal" text-anchor="middle" textLength="90" x="581" y="543">token is now</text>
  <text fill="rgb(0,0,0)" font-family="sans-serif" font-size="14" font-style="normal" font-weight="normal" text-anchor="middle" textLength="60" x="566" y="561">used up.</text>
  <path d="M 328 641 L 504 641" fill="none" stroke="rgb(0,0,0)" stroke-dasharray="4" />
  <polygon fill="rgb(0,0,0)" points="336,637 328,641 336,645" stroke="rgb(0,0,0)" />
  <path d="M 136 726 L 312 726" fill="none" stroke="rgb(0,0,0)" stroke-dasharray="4" />
  <polygon fill="rgb(0,0,0)" points="144,722 136,726 144,730" stroke="rgb(0,0,0)" />
  <path d="M 328 814 L 504 814" fill="none" stroke="rgb(0,0,0)" />
  <polygon fill="rgb(0,0,0)" points="496,810 504,814 496,818" stroke="rgb(0,0,0)" />
  <path d="M 328 899 L 504 899" fill="none" stroke="rgb(0,0,0)" stroke-dasharray="4" />
  <polygon fill="rgb(0,0,0)" points="336,895 328,899 336,903" stroke="rgb(0,0,0)" />
  <text fill="rgb(0,0,0)" font-family="sans-serif" font-size="14" font-style="normal" font-weight="normal" text-anchor="middle" textLength="139" x="209" y="135">1. I want to connect</text>
  <text fill="rgb(0,0,0)" font-family="sans-serif" font-size="14" font-style="normal" font-weight="normal" text-anchor="middle" textLength="143" x="211" y="153">my bank to this app.</text>
  <text fill="rgb(0,0,0)" font-family="sans-serif" font-size="14" font-style="normal" font-weight="normal" text-anchor="middle" textLength="93" x="265" y="221">2. Go see the</text>
  <text fill="rgb(0,0,0)" font-family="sans-serif" font-size="14" font-style="normal" font-weight="normal" text-anchor="middle" textLength="120" x="252" y="238">SimpleFIN Server.</text>
  <text fill="rgb(0,0,0)" font-family="sans-serif" font-size="14" font-style="normal" font-weight="normal" text-anchor="middle" textLength="191" x="235" y="308">3. I want to connect an app</text>
  <text fill="rgb(0,0,0)" font-family="sans-serif" font-size="14" font-style="normal" font-weight="normal" text-anchor="middle" textLength="194" x="407" y="377">4. Here's a SimpleFIN Token</text>
  <text fill="rgb(0,0,0)" font-family="sans-serif" font-size="14" font-style="normal" font-weight="normal" text-anchor="middle" textLength="74" x="177" y="444">5. Here's a</text>
  <text fill="rgb(0,0,0)" font-family="sans-serif" font-size="14" font-style="normal" font-weight="normal" text-anchor="middle" textLength="115" x="197" y="461">SimpleFIN Token</text>
  <text fill="rgb(0,0,0)" font-family="sans-serif" font-size="14" font-style="normal" font-weight="normal" text-anchor="middle" textLength="74" x="369" y="519">6. Here's a</text>
  <text fill="rgb(0,0,0)" font-family="sans-serif" font-size="14" font-style="normal" font-weight="normal" text-anchor="middle" textLength="115" x="389" y="536">SimpleFIN Token</text>
  <text fill="rgb(0,0,0)" font-family="sans-serif" font-size="14" font-style="normal" font-weight="normal" text-anchor="middle" textLength="145" x="431" y="621">7. Here's a read-only</text>
  <text fill="rgb(0,0,0)" font-family="sans-serif" font-size="14" font-style="normal" font-weight="normal" text-anchor="middle" textLength="83" x="462" y="639">Access Key</text>
  <text fill="rgb(0,0,0)" font-family="sans-serif" font-size="14" font-style="normal" font-weight="normal" text-anchor="middle" textLength="171" x="226" y="717">8. Alright, I'm connected.</text>
  <text fill="rgb(0,0,0)" font-family="sans-serif" font-size="14" font-style="normal" font-weight="normal" text-anchor="middle" textLength="175" x="419" y="803">9. Here's my Access Key</text>
  <text fill="rgb(0,0,0)" font-family="sans-serif" font-size="14" font-style="normal" font-weight="normal" text-anchor="middle" textLength="146" x="431" y="879">10. Here's the User's</text>
  <text fill="rgb(0,0,0)" font-family="sans-serif" font-size="14" font-style="normal" font-weight="normal" text-anchor="middle" textLength="134" x="437" y="897">transaction history.</text>
</svg>
